<svg id="visual" viewBox="0 0 1600 900" width="1600" height="900" xmlns="http://www.w3.org/2000/svg" xmlns:xlink="http://www.w3.org/1999/xlink" version="1.1"><rect width="1600" height="900" fill="#001422"></rect><g><g transform="translate(1101 211)"><path d="M0 -61.1L43.2 -43.2L61.1 0L43.2 43.2L0 61.1L-43.2 43.2L-61.1 0L-43.2 -43.2Z" fill="#005f8a"></path></g><g transform="translate(793 529)"><path d="M0 -18L12.7 -12.7L18 0L12.7 12.7L0 18L-12.7 12.7L-18 0L-12.7 -12.7Z" fill="#005f8a"></path></g><g transform="translate(708 697)"><path d="M0 -28L19.8 -19.8L28 0L19.8 19.8L0 28L-19.8 19.8L-28 0L-19.8 -19.8Z" fill="#005f8a"></path></g><g transform="translate(135 79)"><path d="M0 -44L31.1 -31.1L44 0L31.1 31.1L0 44L-31.1 31.1L-44 0L-31.1 -31.1Z" fill="#005f8a"></path></g><g transform="translate(872 783)"><path d="M0 -38L26.9 -26.9L38 0L26.9 26.9L0 38L-26.9 26.9L-38 0L-26.9 -26.9Z" fill="#005f8a"></path></g><g transform="translate(451 23)"><path d="M0 -47L33.2 -33.2L47 0L33.2 33.2L0 47L-33.2 33.2L-47 0L-33.2 -33.2Z" fill="#005f8a"></path></g><g transform="translate(913 235)"><path d="M0 -22L15.6 -15.6L22 0L15.6 15.6L0 22L-15.6 15.6L-22 0L-15.6 -15.6Z" fill="#005f8a"></path></g><g transform="translate(968 613)"><path d="M0 -35L24.7 -24.7L35 0L24.7 24.7L0 35L-24.7 24.7L-35 0L-24.7 -24.7Z" fill="#005f8a"></path></g><g transform="translate(382 826)"><path d="M0 -48L33.9 -33.9L48 0L33.9 33.9L0 48L-33.9 33.9L-48 0L-33.9 -33.9Z" fill="#005f8a"></path></g><g transform="translate(10 198)"><path d="M0 -47L33.2 -33.2L47 0L33.2 33.2L0 47L-33.2 33.2L-47 0L-33.2 -33.2Z" fill="#005f8a"></path></g><g transform="translate(487 664)"><path d="M0 -48L33.9 -33.9L48 0L33.9 33.9L0 48L-33.9 33.9L-48 0L-33.9 -33.9Z" fill="#005f8a"></path></g><g transform="translate(53 795)"><path d="M0 -42L29.7 -29.7L42 0L29.7 29.7L0 42L-29.7 29.7L-42 0L-29.7 -29.7Z" fill="#005f8a"></path></g><g transform="translate(619 84)"><path d="M0 -18L12.7 -12.7L18 0L12.7 12.7L0 18L-12.7 12.7L-18 0L-12.7 -12.7Z" fill="#005f8a"></path></g><g transform="translate(304 36)"><path d="M0 -37L26.2 -26.2L37 0L26.2 26.2L0 37L-26.2 26.2L-37 0L-26.2 -26.2Z" fill="#005f8a"></path></g><g transform="translate(884 64)"><path d="M0 -32L22.6 -22.6L32 0L22.6 22.6L0 32L-22.6 22.6L-32 0L-22.6 -22.6Z" fill="#005f8a"></path></g><g transform="translate(1393 418)"><path d="M0 -40L28.3 -28.3L40 0L28.3 28.3L0 40L-28.3 28.3L-40 0L-28.3 -28.3Z" fill="#005f8a"></path></g><g transform="translate(1052 746)"><path d="M0 -28L19.8 -19.8L28 0L19.8 19.8L0 28L-19.8 19.8L-28 0L-19.8 -19.8Z" fill="#005f8a"></path></g><g transform="translate(1429 620)"><path d="M0 -20L14.1 -14.1L20 0L14.1 14.1L0 20L-14.1 14.1L-20 0L-14.1 -14.1Z" fill="#005f8a"></path></g><g transform="translate(1533 412)"><path d="M0 -35L24.7 -24.7L35 0L24.7 24.7L0 35L-24.7 24.7L-35 0L-24.7 -24.7Z" fill="#005f8a"></path></g><g transform="translate(218 536)"><path d="M0 -39L27.6 -27.6L39 0L27.6 27.6L0 39L-27.6 27.6L-39 0L-27.6 -27.6Z" fill="#005f8a"></path></g><g transform="translate(260 246)"><path d="M0 -24L17 -17L24 0L17 17L0 24L-17 17L-24 0L-17 -17Z" fill="#005f8a"></path></g><g transform="translate(1319 221)"><path d="M0 -37L26.2 -26.2L37 0L26.2 26.2L0 37L-26.2 26.2L-37 0L-26.2 -26.2Z" fill="#005f8a"></path></g><g transform="translate(1055 364)"><path d="M0 -31L21.9 -21.9L31 0L21.9 21.9L0 31L-21.9 21.9L-31 0L-21.9 -21.9Z" fill="#005f8a"></path></g><g transform="translate(1348 57)"><path d="M0 -60L42.4 -42.4L60 0L42.4 42.4L0 60L-42.4 42.4L-60 0L-42.4 -42.4Z" fill="#005f8a"></path></g><g transform="translate(1496 879)"><path d="M0 -33L23.3 -23.3L33 0L23.3 23.3L0 33L-23.3 23.3L-33 0L-23.3 -23.3Z" fill="#005f8a"></path></g></g></svg>